# xmcd CD database file
#
# Track frame offsets:
#	150
#	21570
#	41967
#	71990
#	91368
#	112203
#	137529
#	164051
#	184881
#	209128
#	228162
#	246695
#
# Disc length: 3665 seconds
#
# Revision: 0
# Processed by: cddbd v1.5.2PL0 Copyright (c) Steve Scherf et al.
# Submitted via: CDex 1.70beta3
#
DISCID=c70e4f0c
DTITLE=Various Artist - Jazzdelicious COMPILED BY DJ MUSICA
DYEAR=2009
DGENRE=Jazz
TTITLE0=Fabio Nobile - Day What A Day
TTITLE1=Quite Night Orchestra - Time For Spring
TTITLE2=Jaz'pewsso - Wabi
TTITLE3=Afternoons In Stereo - Black Colossus
TTITLE4=Rongetz Foundation
TTITLE5=Aroop Roy - Too Long
TTITLE6=Amedeo Tomassi - Brasilia (Dj Yosaku Re-Edit)
TTITLE7=MopMop - Perfect
TTITLE8=Vincent - Jazzclub
TTITLE9=Monodeluxe - Fate Paola Jazz and Bossa
TTITLE10=Sauce81 - Lost In Colors Of Ligh
TTITLE11=Lemongrass - Ocean Kisses
EXTD=YEAR: 2009
EXTT0=
EXTT1=
EXTT2=
EXTT3=
EXTT4=
EXTT5=
EXTT6=
EXTT7=
EXTT8=
EXTT9=
EXTT10=
EXTT11=
PLAYORDER=
